<svg width="1000" height="141" viewBox="0 0 1000 141" fill="none" xmlns="http://www.w3.org/2000/svg">
<g clip-path="url(#clip0_3011_7516)">
<path d="M961.611 93.7385C950.932 93.7385 943.848 85.6071 943.848 73.4274C943.848 61.2476 950.932 53.1162 961.611 53.1162C972.29 53.1162 979.375 61.2476 979.375 73.4274C979.375 85.6071 972.29 93.7385 961.611 93.7385ZM979.375 0V47.5323H978.921C976.513 39.715 967.649 34.3056 956.795 34.3056C936.345 34.3056 922.804 49.9404 922.804 73.4274C922.804 96.9143 936.345 112.549 956.795 112.549C967.614 112.549 976.513 107.14 978.921 99.1479H979.375L982.097 110.734H1000V0H979.375ZM888.777 36.1204V76.2891C888.777 86.5144 882.775 93.2848 873.422 93.2848C864.837 93.2848 859.113 86.8285 859.113 77.1964V36.1204H838.488V84.2809C838.488 101.277 849.307 112.584 865.569 112.584C876.563 112.584 885.567 107.175 888.149 99.1828H888.742L891.464 110.769H909.368V36.1204H888.742H888.777ZM786.454 93.1452C775.321 93.1452 767.957 85.1883 767.957 73.2878C767.957 61.3872 775.321 53.4303 786.454 53.4303C797.586 53.4303 804.81 61.4221 804.81 73.2878C804.81 85.1534 797.586 93.1452 786.454 93.1452ZM786.454 112.409C810.08 112.409 825.889 96.7747 825.889 73.2878C825.889 49.8008 810.08 34.1661 786.454 34.1661C762.827 34.1661 746.878 49.8008 746.878 73.2878C746.878 96.7747 762.827 112.409 786.454 112.409ZM712.887 110.769H733.512V0H712.887V110.734V110.769ZM667.588 112.584C682.35 112.584 696.03 103.72 701.44 90.3184L683.676 82.7803C681.408 88.9574 674.952 93.3197 667.413 93.3197C655.827 93.3197 648.289 85.3628 648.289 73.4622C648.289 61.5617 655.827 53.6048 667.413 53.6048C674.917 53.6048 681.408 57.9671 683.676 64.2838L701.44 56.6061C696.03 43.2049 682.315 34.3405 667.588 34.3405C643.368 34.3405 627.28 49.9753 627.28 73.4622C627.28 96.9492 643.368 112.584 667.588 112.584ZM577.898 92.5869C571.72 92.5869 568.265 89.5856 568.265 84.4554V54.198H589.03V36.1553H568.265V12.9475H547.64V85.6071C547.64 101.695 556.958 110.734 573.221 110.734H590.217V92.5171H577.863L577.898 92.5869ZM498.607 51.9645C508.833 51.9645 515.01 57.8275 515.917 67.9133H481.297C482.798 57.8275 489.115 51.9645 498.607 51.9645ZM535.46 73.0435C535.46 49.8706 520.873 34.3754 499.2 34.3754C477.528 34.3754 461.894 50.0102 461.894 73.4971C461.894 96.9841 477.249 112.619 500.422 112.619C514.87 112.619 528.097 104.487 533.367 92.4473L517.104 85.6769C514.696 91.5399 508.519 94.9949 500.387 94.9949C490.162 94.9949 483.391 89.5856 481.437 79.9534H535.46V73.0435ZM436.766 36.1902L420.817 90.807L404.729 36.1902H381.102L407.137 110.839H434.079L460.114 36.1902H436.801H436.766ZM340.48 93.215C329.347 93.215 321.984 85.2581 321.984 73.3576C321.984 61.457 329.347 53.5001 340.48 53.5001C351.613 53.5001 358.837 61.4919 358.837 73.3576C358.837 85.2232 351.613 93.215 340.48 93.215ZM340.48 112.479C364.107 112.479 379.916 96.8445 379.916 73.3576C379.916 49.8706 364.107 34.2359 340.48 34.2359C316.854 34.2359 300.905 49.8706 300.905 73.3576C300.905 96.8445 316.854 112.479 340.48 112.479ZM286.457 36.1902C277.418 36.1902 270.194 41.774 268.1 50.1847H267.96L265.238 36.1902H247.335V110.839H267.96V77.3011C267.96 64.9469 274.277 56.8504 284.049 56.8504H295.495V36.2251H286.457V36.1902ZM194.986 93.8083C184.307 93.8083 177.223 85.6769 177.223 73.4971C177.223 61.3174 184.307 53.0464 194.986 53.0464C205.666 53.0464 212.75 61.3174 212.75 73.4971C212.75 85.6769 205.666 93.8083 194.986 93.8083ZM199.803 34.3754C188.984 34.3754 180.085 39.7848 177.677 47.7766H177.223L174.501 36.1902H156.598V140.608H177.223V99.3921H177.677C180.085 107.21 188.949 112.619 199.803 112.619C220.253 112.619 233.794 96.9841 233.794 73.4971C233.794 50.0102 220.253 34.3754 199.803 34.3754Z" fill="white"/>
<path d="M95.0647 61.8456C95.0647 77.934 82.0125 90.9862 65.9241 90.9862H41.3552L19.7877 112.554V32.7398H65.959C82.0474 32.7398 95.0647 45.792 95.0647 61.8456ZM65.959 12.9521H0V140.543H19.7877L49.5565 110.774H65.9241C92.9359 110.774 114.817 88.8922 114.817 61.8805C114.817 34.8687 92.9708 12.987 65.959 12.9521Z" fill="white"/>
</g>
<defs>
<clipPath id="clip0_3011_7516">
<rect width="1000" height="140.607" fill="white"/>
</clipPath>
</defs>
</svg>
